<?xml version="1.0" encoding="utf-8"?>
<!-- Generator: Adobe Illustrator 27.8.0, SVG Export Plug-In . SVG Version: 6.00 Build 0)  -->
<svg version="1.1" id="Ebene_1" xmlns="http://www.w3.org/2000/svg" xmlns:xlink="http://www.w3.org/1999/xlink" x="0px" y="0px"
	 viewBox="0 0 381.4 102.8" style="enable-background:new 0 0 381.4 102.8;" xml:space="preserve">
<style type="text/css">
	.st0{fill:#104479;}
</style>
<path class="st0" d="M102.8,34.7h18.6L118,52.1h0.1l13.2-17.4h20.1l-16.6,19.1l10.4,21.5h-20.6l-7.4-18.2H117l-3.6,18.2H94.8
	L102.8,34.7z"/>
<path class="st0" d="M156.4,34.7h28.4c10.3,0,15.8,2.6,14.4,10.3c-1,4.7-4,8.2-11.5,9.7l0,0.1c4.5,0.3,6.8,2.1,7,5.2
	c0.4,3.5-0.9,9.2,0.1,15.3h-18.6c-0.6-3-0.1-8.2-0.1-11.6c0-2-1-2.8-4.1-2.8h-2.2l-2.9,14.4h-18.6L156.4,34.7z M173.2,51.6
	c3.7,0,6.6-1.1,7.2-4.1c0.6-3-1.7-3.6-5.4-3.6h-1.7l-1.6,7.7H173.2z"/>
<path class="st0" d="M260.9,34.7h22.8l5.3,26.3h0.1l4.8-26.3h15.4l-8,40.6h-22.8l-5.2-26.5h-0.1l-4.9,26.5h-15.4L260.9,34.7z"/>
<path class="st0" d="M316.9,34.7h36.5l-2,10.6H333l-0.9,4.3H349l-2.1,10.6H330l-0.9,4.6H348l-2.1,10.6h-37.1L316.9,34.7z"/>
<g>
	<polygon class="st0" points="62.4,24.6 57.4,62.1 50.2,62.1 45.1,24.6 53.8,33 	"/>
	<path class="st0" d="M34.6,66.6l4.3-4.2c-4.1-3-6.7-7.2-6.4-12.1c0.7-6.5,7.3-11.3,13-13.1l-7.9-7.9c-7.2,2.4-14.6,9.5-15.4,17.4
		C21.1,55.2,27.3,62.8,34.6,66.6z"/>
	<path class="st0" d="M73,66.6c7.3-3.8,13.4-11.4,12.4-19.9c-0.7-7.9-8.2-15-15.4-17.4l-7.9,7.9c5.6,1.8,12.2,6.6,13,13.1
		c0.4,4.9-2.3,9.1-6.4,12.1L73,66.6z"/>
	<polygon class="st0" points="73.3,67.5 34.2,67.5 26.2,75.3 81.3,75.3 	"/>
</g>
<path class="st0" d="M230.8,33.2c16.8,0,23.5,8.9,20.9,21.8c-2.6,12.9-12.7,21.8-29.6,21.8s-23.5-8.9-20.9-21.8
	C203.8,42.1,213.9,33.2,230.8,33.2z M224.3,66c3,0,5.5-1.4,7.4-11c1.8-9.3,0.1-11-3-11s-5.6,1.7-7.4,11
	C219.3,64.5,221.3,66,224.3,66z"/>
</svg>
